HIERARCHY
ROOT Hips
{
	OFFSET 0.000000 0.000000 0.000000
	CHANNELS 6 Xposition Yposition Zposition Xrotation Yrotation Zrotation
	JOINT LeftUpLeg_virtual
	{
		OFFSET 0.000000 0.000000 0.000000
		CHANNELS 3 Xrotation Yrotation Zrotation
		JOINT LeftUpLeg
		{
			OFFSET 11.394100 -6.187798 -0.413800
			CHANNELS 3 Xrotation Yrotation Zrotation
			JOINT LeftLeg
			{
				OFFSET 0.430247 -32.302673 3.732800
				CHANNELS 3 Xrotation Yrotation Zrotation
				JOINT LeftFoot
				{
					OFFSET -0.430247 -48.264931 -6.423300
					CHANNELS 3 Xrotation Yrotation Zrotation
					JOINT LeftToeBase
					{
						OFFSET 4.230900 -16.068199 23.438400
						CHANNELS 3 Xrotation Yrotation Zrotation
						JOINT LeftToe_End
						{
							OFFSET 4.510700 0.695400 19.974600
							CHANNELS 3 Xrotation Yrotation Zrotation
							End Site
							{
								OFFSET 0 0 0
							}
						}
					}
				}
			}
		}
	}
	JOINT RightUpLeg_virtual
	{
		OFFSET 0.000000 0.000000 0.000000
		CHANNELS 3 Xrotation Yrotation Zrotation
		JOINT RightUpLeg
		{
			OFFSET -11.333700 -6.187798 -0.413800
			CHANNELS 3 Xrotation Yrotation Zrotation
			JOINT RightLeg
			{
				OFFSET -0.430392 -32.302628 3.733000
				CHANNELS 3 Xrotation Yrotation Zrotation
				JOINT RightFoot
				{
					OFFSET 0.430392 -48.264973 -6.423500
					CHANNELS 3 Xrotation Yrotation Zrotation
					JOINT RightToeBase
					{
						OFFSET -4.230900 -16.068199 23.438400
						CHANNELS 3 Xrotation Yrotation Zrotation
						JOINT RightToe_End
						{
							OFFSET -4.510700 0.695400 19.974600
							CHANNELS 3 Xrotation Yrotation Zrotation
							End Site
							{
								OFFSET 0 0 0
							}
						}
					}
				}
			}
		}
	}
	JOINT Spine_virtual
	{
		OFFSET 0.000000 0.000000 0.000000
		CHANNELS 3 Xrotation Yrotation Zrotation
		JOINT Spine
		{
			OFFSET -0.002400 12.777504 0.315300
			CHANNELS 3 Xrotation Yrotation Zrotation
			JOINT Spine1
			{
				OFFSET -0.002067 5.816869 0.032633
				CHANNELS 3 Xrotation Yrotation Zrotation
				JOINT Spine1_split
				{
					OFFSET -0.002067 5.816869 0.032633
					CHANNELS 3 Xrotation Yrotation Zrotation
					JOINT Spine2
					{
						OFFSET -0.002067 5.816869 0.032633
						CHANNELS 3 Xrotation Yrotation Zrotation
						JOINT Neck_virtual
						{
							OFFSET 0.000000 0.000000 0.000000
							CHANNELS 3 Xrotation Yrotation Zrotation
							JOINT Neck
							{
								OFFSET -0.003700 21.199493 -0.826900
								CHANNELS 3 Xrotation Yrotation Zrotation
								JOINT Head
								{
									OFFSET 0.000000 20.442200 4.834800
									CHANNELS 3 Xrotation Yrotation Zrotation
									JOINT HeadTop_End
									{
										OFFSET 0.000000 34.668396 4.968400
										CHANNELS 3 Xrotation Yrotation Zrotation
										End Site
										{
											OFFSET 0 0 0
										}
									}
								}
							}
						}
						JOINT LeftShoulder_virtual
						{
							OFFSET 0.000000 0.000000 0.000000
							CHANNELS 3 Xrotation Yrotation Zrotation
							JOINT LeftShoulder
							{
								OFFSET 3.288150 8.794197 -1.372250
								CHANNELS 3 Xrotation Yrotation Zrotation
								JOINT LeftShoulder_split
								{
									OFFSET 3.288150 8.794197 -1.372250
									CHANNELS 3 Xrotation Yrotation Zrotation
									JOINT LeftArm
									{
										OFFSET 11.953299 -2.279007 -0.146200
										CHANNELS 3 Xrotation Yrotation Zrotation
										JOINT LeftForeArm
										{
											OFFSET 18.448900 0.000000 0.000000
											CHANNELS 3 Xrotation Yrotation Zrotation
											JOINT LeftHand
											{
												OFFSET 29.527798 0.000000 0.000000
												CHANNELS 3 Xrotation Yrotation Zrotation
												End Site
												{
													OFFSET 0 0 0
												}
											}
										}
									}
								}
							}
						}
						JOINT RightShoulder_virtual
						{
							OFFSET 0.000000 0.000000 0.000000
							CHANNELS 3 Xrotation Yrotation Zrotation
							JOINT RightShoulder
							{
								OFFSET -3.249400 8.794197 -1.372250
								CHANNELS 3 Xrotation Yrotation Zrotation
								JOINT RightShoulder_split
								{
									OFFSET -3.249400 8.794197 -1.372250
									CHANNELS 3 Xrotation Yrotation Zrotation
									JOINT RightArm
									{
										OFFSET -11.953299 -2.279007 -0.146200
										CHANNELS 3 Xrotation Yrotation Zrotation
										JOINT RightForeArm
										{
											OFFSET -18.448900 0.000000 0.000000
											CHANNELS 3 Xrotation Yrotation Zrotation
											JOINT RightHand
											{
												OFFSET -29.527802 0.000000 0.000000
												CHANNELS 3 Xrotation Yrotation Zrotation
												End Site
												{
													OFFSET 0 0 0
												}
											}
										}
									}
								}
							}
						}
					}
				}
			}
		}
	}
}
MOTION
Frames: 9
Frame Time: 0.03333333
-0.431515 92.760391 1.216099 0.000000 0.000000 0.000000 -179.504133 48.106593 177.319347 -32.920402 -6.919006 15.593981 23.789057 -6.394504 3.028936 9.456983 -2.492323 -11.218161 -8.479756 4.217316 0.996236 0.000000 0.000000 0.000000 177.262479 42.999955 -179.976318 -15.581553 3.535156 -12.871583 48.566326 -3.744893 -2.304712 -18.225124 -7.334104 17.223968 5.007389 -0.296624 -1.151810 0.000000 0.000000 0.000000 -179.242578 50.058040 177.256905 7.070577 0.926657 8.463552 16.390562 0.392751 -0.681045 6.380792 10.107274 -0.403343 0.000000 0.000000 0.000000 17.514543 0.214882 -2.102804 -29.163429 -3.588248 -3.023443 -2.808930 -5.048541 6.000479 0.000000 0.000000 0.000000 19.344364 -0.194613 -1.627371 4.735065 -13.893007 -14.161270 -15.270459 -15.409564 -3.264811 22.450779 2.986011 -29.316504 45.078255 -74.634208 32.831691 0.000000 0.000000 0.000000 18.513223 1.062044 -1.090827 -0.557639 5.946794 -4.480505 11.217081 4.068071 -1.204395 -19.751440 -20.558511 67.732445 5.767334 58.200336 -8.123074 0.000000 0.000000 0.000000 
-0.162792 92.440590 0.801960 0.000000 0.000000 0.000000 179.625164 48.719729 177.006333 -32.082864 -5.565000 16.050181 26.804418 -6.942392 3.365765 7.973804 -2.491245 -11.143939 -6.905557 4.198140 0.574613 0.000000 0.000000 0.000000 176.393897 43.373480 179.563556 -18.497727 3.277615 -12.628446 48.921148 -4.119561 -1.461226 -17.042268 -6.656625 15.501137 6.600682 0.020475 -0.485127 0.000000 0.000000 0.000000 178.743373 50.280485 177.546123 7.574768 0.467134 8.466335 16.302099 0.147749 -0.766456 5.124617 9.883912 -2.398126 0.000000 0.000000 0.000000 16.639510 -0.075836 -1.879846 -27.059299 -3.901892 -3.747677 -1.463253 -4.720036 5.684037 0.000000 0.000000 0.000000 18.989656 -0.535568 -1.893256 4.344955 -15.395141 -13.699759 -11.984291 -13.421433 -3.164777 20.120446 3.080302 -28.472830 40.512051 -73.029899 28.191983 0.000000 0.000000 0.000000 18.757684 1.026669 -1.243186 -0.579429 7.504624 -3.699320 11.962165 1.239696 -0.292932 -20.774025 -20.537819 66.946926 4.999920 57.150775 -7.014624 0.000000 0.000000 0.000000 
0.068026 91.385460 -0.129375 0.000000 0.000000 0.000000 176.432351 51.278216 178.348725 -31.642651 -3.819799 17.059509 31.883904 -6.843400 3.730932 3.637806 -0.705380 -11.754508 -5.143581 4.521700 -0.602946 0.000000 0.000000 0.000000 173.833874 45.761588 -179.893659 -26.351353 4.286764 -11.927732 50.918548 -3.375440 -0.438226 -10.578656 -4.559333 16.044628 5.523370 0.510638 -0.549308 0.000000 0.000000 0.000000 174.584143 52.319594 179.347872 8.035801 0.017303 8.184549 15.663731 -0.033437 -0.689175 4.908620 8.218751 -1.953784 0.000000 0.000000 0.000000 15.053204 -0.421427 -1.486017 -23.739960 -4.424720 -4.009642 0.292566 -6.496570 6.742894 0.000000 0.000000 0.000000 18.060424 -0.851832 -2.116475 3.520570 -17.086546 -12.703929 -9.777973 -10.588597 -3.835774 19.725381 0.821986 -24.486261 35.602617 -69.871271 22.539138 0.000000 0.000000 0.000000 18.571329 1.039093 -1.198137 -0.647233 8.917796 -3.135400 11.146037 -1.616303 0.717133 -21.320678 -16.689210 64.140087 3.954402 51.959971 -5.004140 0.000000 0.000000 0.000000 
0.013932 89.847252 -1.394016 0.000000 0.000000 0.000000 170.989428 55.231526 -178.448405 -31.677383 -1.765866 18.497281 38.035056 -6.214095 3.926392 -3.445513 2.396099 -12.920361 -5.539943 4.950814 -1.431366 0.000000 0.000000 0.000000 169.351644 49.531193 -177.472466 -37.220614 6.246306 -10.207682 54.129802 -2.159608 0.394251 -2.488265 -1.635068 16.630706 2.851245 1.068684 -0.945952 0.000000 0.000000 0.000000 168.249361 55.333726 -176.807206 8.504781 -0.263591 7.531107 14.716682 -0.105098 -0.572753 4.228772 6.377601 -0.180652 0.000000 0.000000 0.000000 13.247153 -0.666990 -1.130175 -20.343353 -5.067633 -3.562897 1.207290 -9.529373 8.726405 0.000000 0.000000 0.000000 16.879003 -0.995322 -2.309143 2.425678 -18.672144 -11.307239 -7.900335 -7.135117 -4.529711 21.190925 -1.342202 -18.985539 33.651758 -67.528250 19.333824 0.000000 0.000000 0.000000 17.971507 1.030813 -1.051392 -0.750948 9.484744 -3.327457 9.340586 -2.906874 1.563609 -20.384498 -10.629558 61.145179 3.564856 44.716873 -3.120707 0.000000 0.000000 0.000000 
-0.107974 87.817627 -2.875000 0.000000 0.000000 0.000000 163.145366 59.184668 -172.646459 -32.284904 0.484695 20.359815 43.978605 -5.271733 3.751272 -12.566182 6.065121 -14.043929 -7.822234 5.249222 -1.807959 0.000000 0.000000 0.000000 162.976373 54.045402 -172.997162 -49.563903 8.428298 -7.407908 57.800496 -1.564214 1.074623 4.149664 0.814387 14.755633 2.181191 1.601077 -1.016290 0.000000 0.000000 0.000000 159.517647 58.838364 -170.269772 8.937282 -0.230642 6.450425 13.741319 -0.095165 -0.520453 3.161121 5.294570 1.948434 0.000000 0.000000 0.000000 11.895276 -0.764462 -0.957579 -18.429713 -5.649071 -2.750509 0.022608 -13.349977 11.069043 0.000000 0.000000 0.000000 15.714143 -0.926523 -2.485281 1.281424 -19.835573 -9.645614 -6.368418 -3.279257 -4.762307 22.767544 -0.778077 -14.437538 34.566833 -67.815056 18.968851 0.000000 0.000000 0.000000 17.256809 0.980264 -0.969954 -0.962792 8.844478 -4.546798 7.050617 -2.142389 2.234145 -18.240970 -5.727036 59.023121 3.807395 37.338042 -1.620266 0.000000 0.000000 0.000000 
-0.194578 85.446358 -3.548203 0.000000 0.000000 0.000000 153.181636 61.925009 -164.063685 -34.585834 1.973671 22.910715 50.027150 -4.760810 2.948326 -21.007509 9.389083 -16.191049 -9.937779 5.486891 -2.220077 0.000000 0.000000 0.000000 154.580513 58.062379 -165.848495 -61.831776 10.305646 -4.436226 61.485418 -1.759769 1.848415 8.682904 2.470549 10.629776 3.853664 1.975828 -0.633661 0.000000 0.000000 0.000000 148.538378 62.062043 -160.837868 9.453287 0.095407 5.137279 12.936727 -0.053014 -0.648200 1.630878 3.168361 3.692323 0.000000 0.000000 0.000000 11.485609 -0.707902 -1.048822 -18.943407 -6.110812 -1.933371 -3.895838 -17.066916 12.870720 0.000000 0.000000 0.000000 14.973988 -0.762004 -2.719546 0.315568 -20.013759 -7.729273 -5.323260 0.569726 -5.389318 22.729695 3.332235 -12.712709 39.292186 -71.745864 22.814966 0.000000 0.000000 0.000000 16.766140 0.798975 -1.081308 -1.426016 6.813323 -6.696625 3.805792 0.215385 3.288057 -15.731063 -5.385527 58.466891 4.488545 31.183065 -0.724457 0.000000 0.000000 0.000000 
-0.323795 82.737877 -3.663612 0.000000 0.000000 0.000000 142.928224 63.132053 -154.627614 -38.255299 1.977694 26.173170 56.589210 -6.020878 1.956554 -25.602339 12.193299 -20.591866 -11.393789 5.922027 -2.272689 0.000000 0.000000 0.000000 145.241036 60.427619 -157.211366 -73.155731 12.134538 -2.057786 65.050927 -1.647276 2.432287 12.115845 4.566789 6.730741 4.759671 2.232884 -0.165409 0.000000 0.000000 0.000000 136.541752 64.128933 -149.568917 10.116149 0.622397 3.740183 12.492783 -0.060825 -0.977236 -0.228760 0.424588 3.488222 0.000000 0.000000 0.000000 12.042619 -0.572204 -1.408003 -21.966261 -6.349919 -1.438918 -10.249001 -20.469556 13.645572 0.000000 0.000000 0.000000 14.936097 -0.546997 -3.115120 -0.278121 -19.207035 -5.902257 -5.187838 3.223370 -7.227844 21.505083 10.966851 -14.485440 52.454378 -77.734841 35.738955 0.000000 0.000000 0.000000 16.666100 0.544283 -1.485866 -1.998056 4.166329 -9.041464 -0.603860 3.652742 4.833162 -14.133156 -12.402043 59.537400 4.817077 26.529349 -0.132538 0.000000 0.000000 0.000000 
-0.317782 79.462463 -3.236092 0.000000 0.000000 0.000000 134.699281 62.912504 -146.510536 -41.751123 1.393973 29.075152 61.910542 -7.552808 0.229507 -29.411833 14.946356 -22.797665 -11.592871 6.455289 -2.111424 0.000000 0.000000 0.000000 136.567966 61.361347 -148.838606 -82.893532 14.067686 -1.054127 68.448905 -0.566270 2.663449 15.230567 7.863236 4.751798 2.420207 2.334564 -0.186915 0.000000 0.000000 0.000000 124.954390 65.051377 -137.907503 10.877016 1.184221 2.527827 12.548850 -0.259309 -1.393772 -1.462895 -0.848779 3.151235 0.000000 0.000000 0.000000 13.365084 -0.527111 -1.948542 -26.792413 -6.508364 -1.599714 -17.972615 -23.298352 13.508655 0.000000 0.000000 0.000000 15.649630 -0.448538 -3.608661 -0.374877 -17.786014 -4.479658 -6.357787 2.700035 -10.455385 21.373632 21.322454 -20.000184 85.585740 -81.989618 69.309133 0.000000 0.000000 0.000000 17.127147 0.324037 -2.074072 -2.686095 1.590596 -10.591745 -3.870183 7.270537 6.946037 -14.576296 -26.006541 60.341101 4.338928 24.075845 0.226242 0.000000 0.000000 0.000000 
-0.127108 75.757126 -2.424095 0.000000 0.000000 0.000000 129.910157 61.725048 -141.309032 -44.255251 0.903030 31.206035 65.090528 -7.857017 -2.939998 -35.252973 17.078881 -19.760309 -11.387415 7.051356 -1.917636 0.000000 0.000000 0.000000 129.454652 61.202668 -141.656429 -90.864220 16.049370 -2.020192 71.517094 1.403683 2.636972 17.326715 12.208498 4.963535 -2.446348 2.216821 -0.776083 0.000000 0.000000 0.000000 115.808453 64.736670 -128.025052 11.739616 1.600031 1.928179 12.903646 -0.633193 -1.867134 -1.545672 0.084040 2.257278 0.000000 0.000000 0.000000 14.917340 -0.606593 -2.610648 -31.707507 -6.496343 -2.099065 -25.578165 -24.996411 12.901150 0.000000 0.000000 0.000000 16.923539 -0.487457 -4.111125 0.088363 -16.065732 -3.569483 -7.777565 -1.071367 -13.879702 23.742858 32.131440 -28.587714 125.159583 -81.510801 109.898283 0.000000 0.000000 0.000000 18.029225 0.148637 -2.763741 -3.310271 -0.441694 -10.507753 -4.816716 10.066918 8.727590 -17.922845 -41.960113 58.807690 2.946847 24.791956 0.436270 0.000000 0.000000 0.000000 
